# xmcd
#
# Track frame offsets: 
#        150
#        29637
#        46299
#        59041
#        80535
#        114385
#        146048
#        180769
#        201895
#        241150
#
# Disc length: 3492 seconds
#
# Revision: 0
# Processed by: cddbd v1.5.2PL0 Copyright (c) Steve Scherf et al.
# Submitted via: ExactAudioCopy v0.95b4
#
DISCID=880da20a
DTITLE=Eric Clapton - 1997-10-20 - In The West Of Japan - Disc A
DYEAR=1997
DGENRE=Blues
TTITLE0=Layla
TTITLE1=Change The World
TTITLE2=Nobody Knows You When You're Down And Out
TTITLE3=Tears In Heaven
TTITLE4=Going Down Slow
TTITLE5=Broken Hearted
TTITLE6=Pilgrim
TTITLE7=Before You Accuse Me
TTITLE8=I Shot The Sheriff
TTITLE9=Wonderful Tonight
EXTD=
EXTT0=
EXTT1=
EXTT2=
EXTT3=
EXTT4=
EXTT5=
EXTT6=
EXTT7=
EXTT8=
EXTT9=
PLAYORDER=
